<svg width="400" height="300" viewBox="0 0 400 300" fill="none" xmlns="http://www.w3.org/2000/svg">
  <rect width="400" height="300" fill="#F3F4F6"/>
  <path d="M200 150C200 171.046 182.944 188 161.538 188C140.132 188 123.077 171.046 123.077 150C123.077 128.954 140.132 112 161.538 112C182.944 112 200 128.954 200 150Z" fill="#9CA3AF"/>
  <path d="M161.538 169.231C161.538 169.231 176.615 173.077 176.615 188H146.461C146.461 173.077 161.538 169.231 161.538 169.231Z" fill="#6B7280"/>
  <path d="M80 100H120V140H80V100Z" fill="#9CA3AF"/>
  <path d="M280 100H240V140H280V100Z" fill="#9CA3AF"/>
  <path d="M40 40H360V260H40V40Z" stroke="#9CA3AF" stroke-width="4"/>
</svg>
